<mxfile host="app.diagrams.net" modified="2023-04-25T18:02:57.784Z" agent="Mozilla/5.0 (Windows NT 10.0; Win64; x64) AppleWebKit/537.36 (KHTML, like Gecko) Chrome/112.0.0.0 Safari/537.36" etag="j8fbBmd2OQj22xR5o4-o" version="21.2.1" type="device">
  <diagram name="Página-1" id="PsRbdIjaO_LaQlZ27BIp">
    <mxGraphModel dx="3254" dy="891" grid="1" gridSize="10" guides="1" tooltips="1" connect="1" arrows="1" fold="1" page="1" pageScale="1" pageWidth="827" pageHeight="1169" math="0" shadow="0">
      <root>
        <mxCell id="0" />
        <mxCell id="1" parent="0" />
        <mxCell id="j151HdxCoLGiwzaft7QE-1" value="Diagrama PIX" style="shape=umlFrame;whiteSpace=wrap;html=1;pointerEvents=0;" vertex="1" parent="1">
          <mxGeometry x="-860" width="1250" height="650" as="geometry" />
        </mxCell>
        <mxCell id="j151HdxCoLGiwzaft7QE-3" value="Usuário" style="shape=umlLifeline;perimeter=lifelinePerimeter;whiteSpace=wrap;html=1;container=1;dropTarget=0;collapsible=0;recursiveResize=0;outlineConnect=0;portConstraint=eastwest;newEdgeStyle={&quot;edgeStyle&quot;:&quot;elbowEdgeStyle&quot;,&quot;elbow&quot;:&quot;vertical&quot;,&quot;curved&quot;:0,&quot;rounded&quot;:0};" vertex="1" parent="1">
          <mxGeometry x="-780" y="40" width="100" height="600" as="geometry" />
        </mxCell>
        <mxCell id="j151HdxCoLGiwzaft7QE-26" value="" style="html=1;points=[];perimeter=orthogonalPerimeter;outlineConnect=0;targetShapes=umlLifeline;portConstraint=eastwest;newEdgeStyle={&quot;edgeStyle&quot;:&quot;elbowEdgeStyle&quot;,&quot;elbow&quot;:&quot;vertical&quot;,&quot;curved&quot;:0,&quot;rounded&quot;:0};" vertex="1" parent="j151HdxCoLGiwzaft7QE-3">
          <mxGeometry x="45" y="80" width="10" height="30" as="geometry" />
        </mxCell>
        <mxCell id="j151HdxCoLGiwzaft7QE-28" value="" style="html=1;points=[];perimeter=orthogonalPerimeter;outlineConnect=0;targetShapes=umlLifeline;portConstraint=eastwest;newEdgeStyle={&quot;edgeStyle&quot;:&quot;elbowEdgeStyle&quot;,&quot;elbow&quot;:&quot;vertical&quot;,&quot;curved&quot;:0,&quot;rounded&quot;:0};" vertex="1" parent="j151HdxCoLGiwzaft7QE-3">
          <mxGeometry x="45" y="130" width="10" height="60" as="geometry" />
        </mxCell>
        <mxCell id="kLDbgMq5NnjNqhSY7N7m-8" value="" style="html=1;points=[];perimeter=orthogonalPerimeter;outlineConnect=0;targetShapes=umlLifeline;portConstraint=eastwest;newEdgeStyle={&quot;edgeStyle&quot;:&quot;elbowEdgeStyle&quot;,&quot;elbow&quot;:&quot;vertical&quot;,&quot;curved&quot;:0,&quot;rounded&quot;:0};" vertex="1" parent="j151HdxCoLGiwzaft7QE-3">
          <mxGeometry x="45" y="220" width="10" height="50" as="geometry" />
        </mxCell>
        <mxCell id="kLDbgMq5NnjNqhSY7N7m-13" value="" style="html=1;points=[];perimeter=orthogonalPerimeter;outlineConnect=0;targetShapes=umlLifeline;portConstraint=eastwest;newEdgeStyle={&quot;edgeStyle&quot;:&quot;elbowEdgeStyle&quot;,&quot;elbow&quot;:&quot;vertical&quot;,&quot;curved&quot;:0,&quot;rounded&quot;:0};" vertex="1" parent="j151HdxCoLGiwzaft7QE-3">
          <mxGeometry x="45" y="290" width="10" height="40" as="geometry" />
        </mxCell>
        <mxCell id="kLDbgMq5NnjNqhSY7N7m-15" value="" style="html=1;points=[];perimeter=orthogonalPerimeter;outlineConnect=0;targetShapes=umlLifeline;portConstraint=eastwest;newEdgeStyle={&quot;edgeStyle&quot;:&quot;elbowEdgeStyle&quot;,&quot;elbow&quot;:&quot;vertical&quot;,&quot;curved&quot;:0,&quot;rounded&quot;:0};" vertex="1" parent="j151HdxCoLGiwzaft7QE-3">
          <mxGeometry x="45" y="360" width="10" height="40" as="geometry" />
        </mxCell>
        <mxCell id="kLDbgMq5NnjNqhSY7N7m-29" value="" style="html=1;points=[];perimeter=orthogonalPerimeter;outlineConnect=0;targetShapes=umlLifeline;portConstraint=eastwest;newEdgeStyle={&quot;edgeStyle&quot;:&quot;elbowEdgeStyle&quot;,&quot;elbow&quot;:&quot;vertical&quot;,&quot;curved&quot;:0,&quot;rounded&quot;:0};" vertex="1" parent="j151HdxCoLGiwzaft7QE-3">
          <mxGeometry x="45" y="510" width="10" height="30" as="geometry" />
        </mxCell>
        <mxCell id="j151HdxCoLGiwzaft7QE-5" value="Banco de Origem" style="shape=umlLifeline;perimeter=lifelinePerimeter;whiteSpace=wrap;html=1;container=1;dropTarget=0;collapsible=0;recursiveResize=0;outlineConnect=0;portConstraint=eastwest;newEdgeStyle={&quot;edgeStyle&quot;:&quot;elbowEdgeStyle&quot;,&quot;elbow&quot;:&quot;vertical&quot;,&quot;curved&quot;:0,&quot;rounded&quot;:0};" vertex="1" parent="1">
          <mxGeometry x="-540" y="40" width="100" height="600" as="geometry" />
        </mxCell>
        <mxCell id="j151HdxCoLGiwzaft7QE-23" value="" style="html=1;points=[];perimeter=orthogonalPerimeter;outlineConnect=0;targetShapes=umlLifeline;portConstraint=eastwest;newEdgeStyle={&quot;edgeStyle&quot;:&quot;elbowEdgeStyle&quot;,&quot;elbow&quot;:&quot;vertical&quot;,&quot;curved&quot;:0,&quot;rounded&quot;:0};" vertex="1" parent="j151HdxCoLGiwzaft7QE-5">
          <mxGeometry x="45" y="80" width="10" height="130" as="geometry" />
        </mxCell>
        <mxCell id="kLDbgMq5NnjNqhSY7N7m-9" value="" style="html=1;points=[];perimeter=orthogonalPerimeter;outlineConnect=0;targetShapes=umlLifeline;portConstraint=eastwest;newEdgeStyle={&quot;edgeStyle&quot;:&quot;elbowEdgeStyle&quot;,&quot;elbow&quot;:&quot;vertical&quot;,&quot;curved&quot;:0,&quot;rounded&quot;:0};" vertex="1" parent="j151HdxCoLGiwzaft7QE-5">
          <mxGeometry x="45" y="240" width="10" height="30" as="geometry" />
        </mxCell>
        <mxCell id="kLDbgMq5NnjNqhSY7N7m-18" value="" style="html=1;points=[];perimeter=orthogonalPerimeter;outlineConnect=0;targetShapes=umlLifeline;portConstraint=eastwest;newEdgeStyle={&quot;edgeStyle&quot;:&quot;elbowEdgeStyle&quot;,&quot;elbow&quot;:&quot;vertical&quot;,&quot;curved&quot;:0,&quot;rounded&quot;:0};" vertex="1" parent="j151HdxCoLGiwzaft7QE-5">
          <mxGeometry x="45" y="360" width="10" height="40" as="geometry" />
        </mxCell>
        <mxCell id="kLDbgMq5NnjNqhSY7N7m-25" value="" style="html=1;points=[];perimeter=orthogonalPerimeter;outlineConnect=0;targetShapes=umlLifeline;portConstraint=eastwest;newEdgeStyle={&quot;edgeStyle&quot;:&quot;elbowEdgeStyle&quot;,&quot;elbow&quot;:&quot;vertical&quot;,&quot;curved&quot;:0,&quot;rounded&quot;:0};" vertex="1" parent="j151HdxCoLGiwzaft7QE-5">
          <mxGeometry x="45" y="420" width="10" height="70" as="geometry" />
        </mxCell>
        <mxCell id="kLDbgMq5NnjNqhSY7N7m-31" value="" style="html=1;points=[];perimeter=orthogonalPerimeter;outlineConnect=0;targetShapes=umlLifeline;portConstraint=eastwest;newEdgeStyle={&quot;edgeStyle&quot;:&quot;elbowEdgeStyle&quot;,&quot;elbow&quot;:&quot;vertical&quot;,&quot;curved&quot;:0,&quot;rounded&quot;:0};" vertex="1" parent="j151HdxCoLGiwzaft7QE-5">
          <mxGeometry x="45" y="545" width="10" height="35" as="geometry" />
        </mxCell>
        <mxCell id="j151HdxCoLGiwzaft7QE-9" value="Pix" style="shape=umlLifeline;perimeter=lifelinePerimeter;whiteSpace=wrap;html=1;container=1;dropTarget=0;collapsible=0;recursiveResize=0;outlineConnect=0;portConstraint=eastwest;newEdgeStyle={&quot;edgeStyle&quot;:&quot;elbowEdgeStyle&quot;,&quot;elbow&quot;:&quot;vertical&quot;,&quot;curved&quot;:0,&quot;rounded&quot;:0};" vertex="1" parent="1">
          <mxGeometry x="-285" y="40" width="100" height="600" as="geometry" />
        </mxCell>
        <mxCell id="kLDbgMq5NnjNqhSY7N7m-5" value="" style="html=1;points=[];perimeter=orthogonalPerimeter;outlineConnect=0;targetShapes=umlLifeline;portConstraint=eastwest;newEdgeStyle={&quot;edgeStyle&quot;:&quot;elbowEdgeStyle&quot;,&quot;elbow&quot;:&quot;vertical&quot;,&quot;curved&quot;:0,&quot;rounded&quot;:0};" vertex="1" parent="j151HdxCoLGiwzaft7QE-9">
          <mxGeometry x="45" y="180" width="10" height="30" as="geometry" />
        </mxCell>
        <mxCell id="kLDbgMq5NnjNqhSY7N7m-11" value="" style="html=1;points=[];perimeter=orthogonalPerimeter;outlineConnect=0;targetShapes=umlLifeline;portConstraint=eastwest;newEdgeStyle={&quot;edgeStyle&quot;:&quot;elbowEdgeStyle&quot;,&quot;elbow&quot;:&quot;vertical&quot;,&quot;curved&quot;:0,&quot;rounded&quot;:0};" vertex="1" parent="j151HdxCoLGiwzaft7QE-9">
          <mxGeometry x="45" y="230" width="10" height="100" as="geometry" />
        </mxCell>
        <mxCell id="kLDbgMq5NnjNqhSY7N7m-20" value="" style="html=1;points=[];perimeter=orthogonalPerimeter;outlineConnect=0;targetShapes=umlLifeline;portConstraint=eastwest;newEdgeStyle={&quot;edgeStyle&quot;:&quot;elbowEdgeStyle&quot;,&quot;elbow&quot;:&quot;vertical&quot;,&quot;curved&quot;:0,&quot;rounded&quot;:0};" vertex="1" parent="j151HdxCoLGiwzaft7QE-9">
          <mxGeometry x="45" y="360" width="10" height="60" as="geometry" />
        </mxCell>
        <mxCell id="j151HdxCoLGiwzaft7QE-10" value="Banco Central (BACEN)" style="shape=umlLifeline;perimeter=lifelinePerimeter;whiteSpace=wrap;html=1;container=1;dropTarget=0;collapsible=0;recursiveResize=0;outlineConnect=0;portConstraint=eastwest;newEdgeStyle={&quot;edgeStyle&quot;:&quot;elbowEdgeStyle&quot;,&quot;elbow&quot;:&quot;vertical&quot;,&quot;curved&quot;:0,&quot;rounded&quot;:0};" vertex="1" parent="1">
          <mxGeometry x="-40" y="45" width="100" height="595" as="geometry" />
        </mxCell>
        <mxCell id="kLDbgMq5NnjNqhSY7N7m-22" value="" style="html=1;points=[];perimeter=orthogonalPerimeter;outlineConnect=0;targetShapes=umlLifeline;portConstraint=eastwest;newEdgeStyle={&quot;edgeStyle&quot;:&quot;elbowEdgeStyle&quot;,&quot;elbow&quot;:&quot;vertical&quot;,&quot;curved&quot;:0,&quot;rounded&quot;:0};" vertex="1" parent="j151HdxCoLGiwzaft7QE-10">
          <mxGeometry x="45" y="360" width="10" height="140" as="geometry" />
        </mxCell>
        <mxCell id="kLDbgMq5NnjNqhSY7N7m-32" value="" style="html=1;points=[];perimeter=orthogonalPerimeter;outlineConnect=0;targetShapes=umlLifeline;portConstraint=eastwest;newEdgeStyle={&quot;edgeStyle&quot;:&quot;elbowEdgeStyle&quot;,&quot;elbow&quot;:&quot;vertical&quot;,&quot;curved&quot;:0,&quot;rounded&quot;:0};" vertex="1" parent="j151HdxCoLGiwzaft7QE-10">
          <mxGeometry x="45" y="545" width="10" height="35" as="geometry" />
        </mxCell>
        <mxCell id="kLDbgMq5NnjNqhSY7N7m-2" value="1.1: Solicitar dados de Acesso()" style="html=1;verticalAlign=bottom;endArrow=open;dashed=1;endSize=8;edgeStyle=elbowEdgeStyle;elbow=vertical;curved=0;rounded=0;" edge="1" parent="1" target="j151HdxCoLGiwzaft7QE-3">
          <mxGeometry relative="1" as="geometry">
            <mxPoint x="-490" y="189.72" as="sourcePoint" />
            <mxPoint x="-570" y="189.72" as="targetPoint" />
          </mxGeometry>
        </mxCell>
        <mxCell id="kLDbgMq5NnjNqhSY7N7m-3" value="1: Acessar Aplicativo()" style="html=1;verticalAlign=bottom;endArrow=block;edgeStyle=elbowEdgeStyle;elbow=vertical;curved=0;rounded=0;" edge="1" parent="1" target="j151HdxCoLGiwzaft7QE-5">
          <mxGeometry width="80" relative="1" as="geometry">
            <mxPoint x="-730" y="130.07" as="sourcePoint" />
            <mxPoint x="-650" y="130.07" as="targetPoint" />
          </mxGeometry>
        </mxCell>
        <mxCell id="kLDbgMq5NnjNqhSY7N7m-4" value="1.1.1: Inserir dados de Acesso" style="html=1;verticalAlign=bottom;endArrow=block;edgeStyle=elbowEdgeStyle;elbow=vertical;curved=0;rounded=0;" edge="1" parent="1" target="j151HdxCoLGiwzaft7QE-5">
          <mxGeometry width="80" relative="1" as="geometry">
            <mxPoint x="-730" y="220" as="sourcePoint" />
            <mxPoint x="-650" y="220" as="targetPoint" />
          </mxGeometry>
        </mxCell>
        <mxCell id="kLDbgMq5NnjNqhSY7N7m-7" value="1.1.1.1: Acessar PIX()" style="html=1;verticalAlign=bottom;endArrow=block;edgeStyle=elbowEdgeStyle;elbow=vertical;curved=0;rounded=0;" edge="1" parent="1" target="j151HdxCoLGiwzaft7QE-9">
          <mxGeometry width="80" relative="1" as="geometry">
            <mxPoint x="-480" y="240" as="sourcePoint" />
            <mxPoint x="-400" y="240" as="targetPoint" />
          </mxGeometry>
        </mxCell>
        <mxCell id="kLDbgMq5NnjNqhSY7N7m-10" value="2: Cadastrar Chave PIX()" style="html=1;verticalAlign=bottom;endArrow=block;edgeStyle=elbowEdgeStyle;elbow=vertical;curved=0;rounded=0;" edge="1" parent="1" target="j151HdxCoLGiwzaft7QE-5">
          <mxGeometry width="80" relative="1" as="geometry">
            <mxPoint x="-730" y="280" as="sourcePoint" />
            <mxPoint x="-650" y="280" as="targetPoint" />
          </mxGeometry>
        </mxCell>
        <mxCell id="kLDbgMq5NnjNqhSY7N7m-12" value="2.1: Validar Chave PIX()" style="html=1;verticalAlign=bottom;endArrow=block;edgeStyle=elbowEdgeStyle;elbow=vertical;curved=0;rounded=0;" edge="1" parent="1" target="j151HdxCoLGiwzaft7QE-9">
          <mxGeometry width="80" relative="1" as="geometry">
            <mxPoint x="-490" y="290" as="sourcePoint" />
            <mxPoint x="-410" y="290" as="targetPoint" />
          </mxGeometry>
        </mxCell>
        <mxCell id="kLDbgMq5NnjNqhSY7N7m-14" value="2.1.1: Chave PIX cadastrado com sucesso()" style="html=1;verticalAlign=bottom;endArrow=open;dashed=1;endSize=8;edgeStyle=elbowEdgeStyle;elbow=vertical;curved=0;rounded=0;" edge="1" parent="1" target="j151HdxCoLGiwzaft7QE-3">
          <mxGeometry x="0.0204" relative="1" as="geometry">
            <mxPoint x="-240" y="340" as="sourcePoint" />
            <mxPoint x="-320" y="340" as="targetPoint" />
            <mxPoint as="offset" />
          </mxGeometry>
        </mxCell>
        <mxCell id="kLDbgMq5NnjNqhSY7N7m-17" value="Banco de Destino" style="shape=umlLifeline;perimeter=lifelinePerimeter;whiteSpace=wrap;html=1;container=1;dropTarget=0;collapsible=0;recursiveResize=0;outlineConnect=0;portConstraint=eastwest;newEdgeStyle={&quot;edgeStyle&quot;:&quot;elbowEdgeStyle&quot;,&quot;elbow&quot;:&quot;vertical&quot;,&quot;curved&quot;:0,&quot;rounded&quot;:0};" vertex="1" parent="1">
          <mxGeometry x="220" y="40" width="100" height="590" as="geometry" />
        </mxCell>
        <mxCell id="kLDbgMq5NnjNqhSY7N7m-27" value="" style="html=1;points=[];perimeter=orthogonalPerimeter;outlineConnect=0;targetShapes=umlLifeline;portConstraint=eastwest;newEdgeStyle={&quot;edgeStyle&quot;:&quot;elbowEdgeStyle&quot;,&quot;elbow&quot;:&quot;vertical&quot;,&quot;curved&quot;:0,&quot;rounded&quot;:0};" vertex="1" parent="kLDbgMq5NnjNqhSY7N7m-17">
          <mxGeometry x="45" y="420" width="10" height="120" as="geometry" />
        </mxCell>
        <mxCell id="kLDbgMq5NnjNqhSY7N7m-19" value="3: Realiar Pagamento()" style="html=1;verticalAlign=bottom;endArrow=block;edgeStyle=elbowEdgeStyle;elbow=vertical;curved=0;rounded=0;" edge="1" parent="1" target="j151HdxCoLGiwzaft7QE-5">
          <mxGeometry width="80" relative="1" as="geometry">
            <mxPoint x="-730" y="410" as="sourcePoint" />
            <mxPoint x="-650" y="410" as="targetPoint" />
          </mxGeometry>
        </mxCell>
        <mxCell id="kLDbgMq5NnjNqhSY7N7m-21" value="3.1: Verificar PIX()" style="html=1;verticalAlign=bottom;endArrow=block;edgeStyle=elbowEdgeStyle;elbow=vertical;curved=0;rounded=0;" edge="1" parent="1" target="j151HdxCoLGiwzaft7QE-9">
          <mxGeometry width="80" relative="1" as="geometry">
            <mxPoint x="-493" y="420" as="sourcePoint" />
            <mxPoint x="-413" y="420" as="targetPoint" />
          </mxGeometry>
        </mxCell>
        <mxCell id="kLDbgMq5NnjNqhSY7N7m-24" value="3.1.1: Enviar dados de pagamento()" style="html=1;verticalAlign=bottom;endArrow=block;edgeStyle=elbowEdgeStyle;elbow=vertical;curved=0;rounded=0;" edge="1" parent="1" target="j151HdxCoLGiwzaft7QE-10">
          <mxGeometry width="80" relative="1" as="geometry">
            <mxPoint x="-230" y="450" as="sourcePoint" />
            <mxPoint x="-150" y="450" as="targetPoint" />
          </mxGeometry>
        </mxCell>
        <mxCell id="kLDbgMq5NnjNqhSY7N7m-26" value="3.1.1.1: Transação Aprovada()" style="html=1;verticalAlign=bottom;endArrow=block;edgeStyle=elbowEdgeStyle;elbow=vertical;curved=0;rounded=0;" edge="1" parent="1" target="j151HdxCoLGiwzaft7QE-10">
          <mxGeometry width="80" relative="1" as="geometry">
            <mxPoint x="-490" y="480" as="sourcePoint" />
            <mxPoint x="-410" y="480" as="targetPoint" />
          </mxGeometry>
        </mxCell>
        <mxCell id="kLDbgMq5NnjNqhSY7N7m-28" value="3.1.1.1.1: Reservar Valor()" style="html=1;verticalAlign=bottom;endArrow=block;edgeStyle=elbowEdgeStyle;elbow=vertical;curved=0;rounded=0;" edge="1" parent="1" target="kLDbgMq5NnjNqhSY7N7m-17">
          <mxGeometry width="80" relative="1" as="geometry">
            <mxPoint x="-493" y="530" as="sourcePoint" />
            <mxPoint x="-413" y="530" as="targetPoint" />
          </mxGeometry>
        </mxCell>
        <mxCell id="kLDbgMq5NnjNqhSY7N7m-30" value="3.1.1.1.1.1: Pix enviado com sucesso():" style="html=1;verticalAlign=bottom;endArrow=open;dashed=1;endSize=8;edgeStyle=elbowEdgeStyle;elbow=vertical;curved=0;rounded=0;" edge="1" parent="1" target="j151HdxCoLGiwzaft7QE-3">
          <mxGeometry relative="1" as="geometry">
            <mxPoint x="260" y="560" as="sourcePoint" />
            <mxPoint x="180" y="560" as="targetPoint" />
          </mxGeometry>
        </mxCell>
        <mxCell id="kLDbgMq5NnjNqhSY7N7m-33" value="4: Informar Transações internas()" style="html=1;verticalAlign=bottom;endArrow=block;edgeStyle=elbowEdgeStyle;elbow=vertical;curved=0;rounded=0;" edge="1" parent="1" target="j151HdxCoLGiwzaft7QE-10">
          <mxGeometry width="80" relative="1" as="geometry">
            <mxPoint x="-490" y="600.33" as="sourcePoint" />
            <mxPoint x="-410" y="600.33" as="targetPoint" />
          </mxGeometry>
        </mxCell>
      </root>
    </mxGraphModel>
  </diagram>
</mxfile>
